<svg width="221" height="220" viewBox="0 0 221 220" fill="none" xmlns="http://www.w3.org/2000/svg">
<path d="M92.0219 195.685C92.1541 194.639 92.4242 193.708 92.8322 192.894C93.2294 192.088 93.7517 191.42 94.3992 190.892C95.0455 190.373 95.8061 190.001 96.6809 189.777C97.5448 189.562 98.5145 189.522 99.5899 189.658C100.772 189.807 101.755 190.089 102.54 190.503C103.324 190.917 103.942 191.438 104.394 192.066C104.836 192.702 105.127 193.433 105.269 194.258C105.401 195.082 105.405 195.983 105.282 196.962L103.668 209.736L101.081 209.409L102.669 196.838C102.764 196.092 102.778 195.43 102.714 194.851C102.639 194.27 102.466 193.771 102.194 193.353C101.922 192.935 101.547 192.597 101.067 192.339C100.578 192.081 99.9655 191.905 99.2292 191.812C97.8534 191.638 96.7908 191.907 96.0413 192.62C95.2821 193.331 94.8113 194.409 94.6289 195.852L93.0445 208.394L90.4576 208.067L92.0219 195.685Z" fill="white"/>
<path d="M73.0686 186.354C73.2591 185.873 73.5116 185.474 73.826 185.157C74.1404 184.841 74.4977 184.588 74.8978 184.4C75.2943 184.221 75.7201 184.101 76.175 184.039C76.63 183.978 77.0978 183.963 77.5785 183.996C78.0501 184.025 78.5209 184.096 78.991 184.209C79.4611 184.321 79.9095 184.462 80.3362 184.631C81.2624 184.998 82.0997 185.377 82.8482 185.767C83.5876 186.155 84.2937 186.587 84.9663 187.063L84.1035 189.242C83.3944 188.699 82.6682 188.212 81.925 187.781C81.1818 187.35 80.4197 186.98 79.6389 186.671C78.5039 186.222 77.6029 186.043 76.9359 186.136C76.2689 186.229 75.8221 186.562 75.5956 187.134C75.4986 187.379 75.4577 187.615 75.473 187.842C75.4756 188.074 75.5563 188.321 75.715 188.583C75.8701 188.855 76.1505 189.181 76.5562 189.562C76.9529 189.94 77.5158 190.415 78.245 190.987C78.7905 191.413 79.2817 191.844 79.7184 192.28C80.1425 192.721 80.4823 193.175 80.7379 193.644C80.9934 194.113 81.1456 194.604 81.1946 195.117C81.2435 195.63 81.153 196.177 80.9229 196.758C80.7719 197.14 80.5203 197.523 80.168 197.909C79.8067 198.291 79.3353 198.593 78.754 198.814C78.1726 199.036 77.4685 199.13 76.6414 199.096C75.8108 199.072 74.8507 198.844 73.7611 198.413C73.2254 198.201 72.6432 197.933 72.0146 197.611C71.3825 197.298 70.741 196.928 70.0903 196.503L70.9261 194.391C71.5988 194.868 72.2549 195.28 72.8944 195.628C73.5213 195.981 74.0799 196.255 74.5702 196.449C75.1604 196.682 75.6778 196.835 76.1223 196.906C76.5578 196.973 76.935 196.975 77.2539 196.913C77.5602 196.855 77.811 196.739 78.0062 196.564C78.1978 196.399 78.3422 196.193 78.4393 195.948C78.5363 195.703 78.579 195.463 78.5673 195.227C78.5465 194.988 78.4467 194.722 78.268 194.431C78.0766 194.145 77.7871 193.815 77.3995 193.441C77.0083 193.076 76.4836 192.637 75.8253 192.125C75.1107 191.569 74.5286 191.049 74.079 190.567C73.6257 190.093 73.2895 189.629 73.0703 189.175C72.8511 188.72 72.748 188.265 72.7609 187.808C72.7647 187.347 72.8672 186.862 73.0686 186.354Z" fill="white"/>
<path d="M52.1496 177.602C52.362 177.309 52.5439 177.067 52.6953 176.875C52.8467 176.684 52.9934 176.507 53.1355 176.344L61.4903 182.414C62.3743 181.198 62.7148 180.015 62.5118 178.865C62.303 177.724 61.5587 176.688 60.2788 175.758C59.9312 175.506 59.5749 175.265 59.2101 175.036C58.8395 174.815 58.475 174.611 58.1167 174.423C57.7583 174.235 57.4129 174.062 57.0804 173.905C56.7342 173.75 56.4089 173.617 56.1044 173.504L57.3357 171.809C58.0114 172.059 58.7393 172.395 59.5192 172.816C60.297 173.225 61.0651 173.704 61.8235 174.255C62.8427 174.996 63.6192 175.771 64.153 176.581C64.6869 177.392 65.0014 178.23 65.0966 179.096C65.1781 179.964 65.058 180.86 64.736 181.785C64.4005 182.712 63.8825 183.658 63.1822 184.621C62.5738 185.459 61.8813 186.163 61.1047 186.733C60.3144 187.306 59.4864 187.706 58.6207 187.934C57.7412 188.164 56.8452 188.201 55.9326 188.045C55.02 187.889 54.137 187.501 53.2838 186.881C52.4542 186.279 51.8142 185.614 51.3636 184.889C50.9131 184.163 50.6457 183.402 50.5613 182.604C50.4632 181.808 50.5533 180.987 50.8315 180.139C51.096 179.293 51.5354 178.447 52.1496 177.602ZM54.0793 179.456C53.671 179.968 53.3722 180.488 53.1829 181.014C52.9879 181.548 52.9099 182.071 52.9489 182.582C52.98 183.088 53.13 183.571 53.3987 184.032C53.6617 184.5 54.0539 184.924 54.5754 185.303C55.0257 185.63 55.4997 185.842 55.9973 185.938C56.4949 186.034 56.9928 186.021 57.491 185.9C57.9892 185.78 58.482 185.558 58.9694 185.236C59.4568 184.914 59.9125 184.503 60.3366 184.002L54.0793 179.456Z" fill="white"/>
<path d="M39.5793 174.349L38.0947 172.554L40.136 170.771C38.7769 170.767 37.6491 170.591 36.7526 170.243C35.8498 169.887 35.1246 169.378 34.5768 168.716C33.6057 167.542 33.2512 166.34 33.5132 165.109C33.7689 163.871 34.6642 162.655 36.1989 161.461L37.8423 163.448C36.8304 164.247 36.2331 164.988 36.0506 165.671C35.8544 166.353 36.0052 166.995 36.5032 167.597C36.7211 167.861 36.991 168.087 37.3129 168.277C37.6211 168.466 37.9988 168.616 38.446 168.728C38.8795 168.838 39.3887 168.917 39.9737 168.966C40.5587 169.014 41.2301 169.029 41.9879 169.01L49.2679 162.988L50.9113 164.974L39.5793 174.349Z" fill="white"/>
<path d="M28.7934 142.636L32.5231 150.562L30.3494 151.585L26.6197 143.659L28.7934 142.636Z" fill="white"/>
<path d="M29.6221 118.922L31.6615 129.613L12.8551 133.201L10.8157 122.51L12.974 122.098L14.5248 130.228L20.3524 129.116L18.8619 121.303L21.0203 120.891L22.5107 128.704L28.9858 127.469L27.4349 119.339L29.6221 118.922Z" fill="white"/>
<path d="M29.9965 96.8409L29.784 100.218L23.9355 103.828L29.2883 108.098L29.0813 111.387L22.0709 105.237L14.4199 110.201L14.625 106.941L20.5109 103.436L15.106 99.2946L15.3038 96.1514L22.3252 102.127L29.9965 96.8409Z" fill="white"/>
<path d="M28.2821 75.6163C29.5266 76.0207 30.556 76.5502 31.3701 77.2049C32.1872 77.8504 32.8026 78.5791 33.2164 79.3913C33.6303 80.2035 33.8546 81.0773 33.8895 82.0128C33.9244 82.9482 33.7834 83.9036 33.4666 84.8788C33.3217 85.3246 33.1536 85.7628 32.9623 86.1936C32.7741 86.615 32.5503 87.0352 32.291 87.454L38.1422 89.3552L37.3545 91.7793L17.6554 85.3787L18.357 83.2193L20.7473 83.8265C20.017 82.8191 19.5897 81.8588 19.4655 80.9456C19.3319 80.0294 19.4145 79.1116 19.7132 78.1921C19.9728 77.3934 20.3678 76.7465 20.8983 76.2514C21.4288 75.7564 22.0669 75.4041 22.8127 75.1946C23.5492 74.9821 24.3825 74.914 25.3126 74.9903C26.2335 75.0636 27.2233 75.2723 28.2821 75.6163ZM27.5878 78.1323C26.8541 77.8939 26.1626 77.7309 25.5134 77.6432C24.8672 77.5461 24.2882 77.5428 23.7762 77.6332C23.2642 77.7235 22.8287 77.9106 22.4695 78.1944C22.101 78.4751 21.8353 78.8662 21.6724 79.3678C21.5728 79.6743 21.5228 80.002 21.5223 80.351C21.5126 80.6969 21.568 81.0794 21.6886 81.4985C21.8028 81.9053 21.9885 82.361 22.2456 82.8655C22.4963 83.3577 22.831 83.908 23.2494 84.5163L30.0341 86.7207C30.3647 86.3353 30.6657 85.9145 30.937 85.4585C31.1992 84.9994 31.4072 84.5331 31.5611 84.0594C31.9866 82.7498 31.8789 81.5802 31.238 80.5505C30.5878 79.5178 29.371 78.7117 27.5878 78.1323Z" fill="white"/>
<path d="M38.8456 56.1804C39.1507 56.374 39.4037 56.5403 39.6046 56.6794C39.8055 56.8185 39.9914 56.9538 40.1624 57.0854L34.6288 65.8049C35.8986 66.6107 37.1007 66.8763 38.235 66.6015C39.3612 66.3215 40.3481 65.5136 41.1958 64.1778C41.426 63.815 41.6439 63.4444 41.8494 63.0659C42.0467 62.6821 42.2278 62.3056 42.3929 61.9361C42.558 61.5666 42.7084 61.2111 42.8443 60.8693C42.9772 60.5142 43.0903 60.1811 43.1835 59.8701L44.9521 60.9926C44.7455 61.6826 44.4562 62.4301 44.0842 63.235C43.7257 64.0369 43.2953 64.8336 42.7929 65.6251C42.1179 66.6888 41.3928 67.5124 40.6176 68.0961C39.8423 68.6798 39.0256 69.0463 38.1675 69.1957C37.3063 69.3316 36.4041 69.2679 35.4608 69.0047C34.5145 68.728 33.5383 68.2704 32.5324 67.6321C31.6584 67.0774 30.9123 66.4304 30.2943 65.6912C29.6732 64.9385 29.2216 64.1373 28.9397 63.2875C28.6548 62.4243 28.5615 61.5323 28.66 60.6117C28.7585 59.6911 29.0903 58.7855 29.6554 57.895C30.2048 57.0293 30.8275 56.3488 31.5235 55.8536C32.2194 55.3584 32.9628 55.0436 33.7535 54.9093C34.5413 54.7615 35.3671 54.7998 36.231 55.0242C37.0918 55.2351 37.9634 55.6205 38.8456 56.1804ZM37.1158 58.2228C36.579 57.8475 36.042 57.5819 35.5048 57.426C34.9593 57.2649 34.4328 57.2199 33.925 57.2909C33.4225 57.3537 32.9498 57.5337 32.5067 57.8308C32.0555 58.1227 31.6571 58.5408 31.3118 59.085C31.0135 59.555 30.8321 60.0413 30.7676 60.5439C30.703 61.0466 30.7467 61.5427 30.8986 62.0324C31.0505 62.522 31.3024 63 31.6543 63.4661C32.0061 63.9323 32.4452 64.3613 32.9715 64.7531L37.1158 58.2228Z" fill="white"/>
<path d="M41.3025 43.4306L43.0003 41.8362L44.9088 43.7615C44.8271 42.4049 44.9319 41.2682 45.2233 40.3516C45.5217 39.4283 45.9842 38.6725 46.6106 38.0842C47.7212 37.0413 48.8988 36.612 50.1435 36.7962C51.3953 36.9737 52.665 37.7909 53.9526 39.2476L52.0732 41.0125C51.2122 40.0527 50.4349 39.5032 49.7415 39.364C49.0485 39.211 48.4173 39.4018 47.8478 39.9366C47.5986 40.1706 47.3894 40.4542 47.22 40.7874C47.0511 41.1068 46.9249 41.4932 46.8416 41.9466C46.7587 42.3861 46.7115 42.8993 46.6999 43.4862C46.6884 44.0731 46.7157 44.7441 46.7818 45.4992L53.2495 52.3867L51.3702 54.1515L41.3025 43.4306Z" fill="white"/>
<path d="M64.8526 28.1192L61.0402 30.2151L60.024 28.3667L66.0957 25.0287L72.1576 36.0553L75.9957 33.9453L77.019 35.8066L66.6856 41.4874L65.6623 39.6261L69.8984 37.2973L64.8526 28.1192ZM61.6485 20.4361C61.8967 20.2997 62.1536 20.2197 62.4193 20.1962C62.6803 20.1642 62.9325 20.1871 63.1759 20.265C63.4279 20.3382 63.6555 20.4583 63.8587 20.6252C64.0657 20.7788 64.2375 20.9797 64.3739 21.2279C64.5056 21.4675 64.5832 21.7202 64.6067 21.9859C64.6388 22.2469 64.6182 22.5033 64.545 22.7553C64.4803 23.0026 64.3669 23.2321 64.2047 23.4439C64.0378 23.6471 63.8303 23.8169 63.5821 23.9533C63.3339 24.0897 63.0793 24.174 62.8184 24.206C62.5527 24.2295 62.2938 24.2046 62.0418 24.1314C61.7984 24.0535 61.5708 23.9335 61.3591 23.7713C61.1559 23.6044 60.9884 23.4011 60.8567 23.1615C60.7203 22.9133 60.6384 22.663 60.611 22.4106C60.5876 22.1449 60.6081 21.8884 60.6728 21.6411C60.746 21.3892 60.8661 21.1616 61.033 20.9584C61.1951 20.7466 61.4003 20.5725 61.6485 20.4361Z" fill="white"/>
<path d="M94.8809 21.9052C94.9708 22.2552 95.0413 22.5496 95.0926 22.7885C95.1438 23.0274 95.1867 23.2534 95.2212 23.4663L85.2185 26.0346C85.5925 27.4912 86.287 28.5077 87.3021 29.0839C88.3147 29.6506 89.5872 29.7373 91.1195 29.3439C91.5357 29.237 91.9482 29.116 92.3571 28.9807C92.7636 28.836 93.1534 28.6855 93.5267 28.5292C93.8999 28.3729 94.253 28.2167 94.586 28.0606C94.926 27.8926 95.2364 27.7272 95.5173 27.5644L96.0382 29.5933C95.4152 29.9549 94.6926 30.3018 93.8705 30.6339C93.0602 30.973 92.201 31.2591 91.293 31.4922C90.0728 31.8055 88.9804 31.9096 88.0157 31.8044C87.051 31.6992 86.2048 31.4073 85.477 30.9287C84.7562 30.4383 84.1421 29.7742 83.6346 28.9366C83.1342 28.0871 82.7358 27.0854 82.4395 25.9314C82.1821 24.9288 82.0811 23.9465 82.1366 22.9845C82.1991 22.0106 82.4185 21.1174 82.7946 20.305C83.1778 19.4807 83.7205 18.7667 84.4225 18.163C85.1244 17.5593 85.9862 17.1263 87.0078 16.864C88.001 16.609 88.9207 16.5392 89.767 16.6546C90.6133 16.77 91.3707 17.0495 92.039 17.4929C92.7144 17.9244 93.2902 18.5176 93.7664 19.2725C94.2495 20.0156 94.621 20.8931 94.8809 21.9052ZM92.2218 22.2099C92.0874 21.5689 91.8778 21.0076 91.5929 20.5263C91.3055 20.0354 90.9525 19.6421 90.5337 19.3463C90.1245 19.0481 89.6566 18.8557 89.1303 18.769C88.6015 18.6729 88.0249 18.705 87.4006 18.8653C86.8615 19.0037 86.3963 19.2341 86.0052 19.5563C85.6141 19.8785 85.3063 20.2701 85.0818 20.731C84.8574 21.192 84.7138 21.7128 84.6512 22.2935C84.5886 22.8742 84.6149 23.4875 84.7304 24.1333L92.2218 22.2099Z" fill="white"/>
<path d="M104.799 14.293L107.07 14.293L107.172 16.666C107.602 16.1582 108.017 15.7383 108.417 15.4063C108.818 15.0645 109.208 14.791 109.589 14.5859C109.98 14.3809 110.375 14.2393 110.776 14.1611C111.176 14.0732 111.591 14.0293 112.021 14.0293C113.535 14.0293 114.677 14.4785 115.449 15.377C116.23 16.2656 116.62 17.6084 116.62 19.4053V29H114.072V19.6104C114.072 18.458 113.857 17.6084 113.427 17.0615C112.997 16.5049 112.358 16.2266 111.508 16.2266C111.196 16.2266 110.888 16.2754 110.585 16.373C110.292 16.4609 109.985 16.6221 109.662 16.8564C109.34 17.0811 108.989 17.3887 108.608 17.7793C108.237 18.1699 107.817 18.6582 107.348 19.2441V29H104.799V14.293Z" fill="white"/>
<path d="M136.265 32.5251C135.558 32.6059 134.85 32.6156 134.14 32.5543C133.437 32.5048 132.726 32.3878 132.007 32.2032C129.756 31.6252 128.177 30.5694 127.27 29.036C126.372 27.5049 126.225 25.5665 126.827 23.2207C127.116 22.0951 127.553 21.1185 128.139 20.2908C128.724 19.4632 129.418 18.8044 130.219 18.3145C131.02 17.8245 131.906 17.5175 132.875 17.3934C133.847 17.2598 134.863 17.329 135.922 17.601C136.66 17.7904 137.337 18.0198 137.954 18.289C138.57 18.5581 139.141 18.8863 139.667 19.2733L139.062 21.6286C138.53 21.1491 137.961 20.7559 137.354 20.4488C136.759 20.1348 136.121 19.8903 135.44 19.7154C134.806 19.5527 134.174 19.5215 133.543 19.6217C132.925 19.7149 132.344 19.9338 131.802 20.2786C131.26 20.6233 130.782 21.0904 130.368 21.6799C129.955 22.2695 129.642 22.9757 129.431 23.7986C128.989 25.5201 129.074 26.9181 129.685 27.9926C130.308 29.06 131.363 29.7844 132.848 30.1657C133.519 30.3381 134.187 30.4288 134.85 30.4377C135.522 30.4491 136.191 30.3787 136.855 30.2266L136.265 32.5251Z" fill="white"/>
<path d="M159.192 35.2786C159.018 35.5953 158.868 35.8582 158.742 36.0674C158.615 36.2767 158.492 36.4707 158.371 36.6496L149.322 31.6744C148.597 32.9923 148.408 34.2087 148.753 35.3236C149.103 36.4299 149.971 37.3642 151.358 38.1263C151.734 38.3333 152.118 38.5275 152.509 38.7088C152.904 38.8816 153.291 39.0387 153.67 39.1803C154.049 39.3218 154.414 39.4497 154.763 39.5639C155.126 39.6742 155.466 39.7661 155.782 39.8396L154.773 41.6752C154.071 41.5124 153.307 41.2706 152.48 40.9498C151.657 40.6424 150.835 40.2628 150.014 39.8112C148.91 39.2043 148.042 38.5323 147.411 37.7953C146.78 37.0582 146.363 36.2661 146.16 35.4191C145.97 34.5681 145.977 33.6637 146.18 32.7057C146.397 31.7439 146.792 30.7409 147.366 29.6969C147.865 28.7898 148.464 28.0046 149.163 27.3413C149.875 26.6742 150.646 26.1732 151.477 25.8385C152.32 25.4999 153.205 25.3509 154.13 25.3913C155.055 25.4318 155.979 25.7061 156.904 26.2142C157.802 26.7082 158.52 27.2869 159.058 27.9504C159.596 28.6139 159.957 29.336 160.141 30.1168C160.338 30.8937 160.351 31.7203 160.182 32.5965C160.025 33.4689 159.695 34.363 159.192 35.2786ZM157.045 33.6804C157.386 33.1212 157.617 32.5686 157.739 32.0226C157.866 31.4681 157.877 30.9397 157.775 30.4375C157.68 29.9399 157.471 29.4794 157.147 29.0559C156.827 28.6238 156.385 28.2525 155.82 27.942C155.332 27.6739 154.835 27.5234 154.33 27.4905C153.824 27.4577 153.332 27.5324 152.852 27.7148C152.373 27.8971 151.912 28.1785 151.469 28.5589C151.026 28.9394 150.625 29.4045 150.267 29.9543L157.045 33.6804Z" fill="white"/>
<path d="M173.704 49.335L167.319 43.3386L168.963 41.5873L175.349 47.5838L173.704 49.335Z" fill="white"/>
<path d="M190.781 67.794C190.006 68.2858 189.224 68.6949 188.437 69.0213C187.654 69.3559 186.874 69.5848 186.097 69.7082C185.319 69.8316 184.546 69.8426 183.776 69.7413C183.014 69.6347 182.262 69.3888 181.521 69.0037C180.779 68.6185 180.053 68.0847 179.342 67.4023C178.64 66.7146 177.961 65.8554 177.307 64.8247L175.109 61.3616L191.275 51.103L193.92 55.271C195.521 57.7941 196.063 60.0874 195.545 62.151C195.04 64.2176 193.452 66.0986 190.781 67.794ZM189.152 65.5832C190.298 64.8558 191.199 64.1338 191.855 63.4171C192.51 62.7004 192.943 61.9691 193.152 61.2234C193.361 60.4777 193.363 59.707 193.159 58.9113C192.963 58.1104 192.582 57.2647 192.017 56.3742L190.816 54.4818L178.411 62.3544L179.455 63.9994C181.789 67.6768 185.021 68.2048 189.152 65.5832Z" fill="white"/>
<path d="M196.918 89.0511C196.574 89.1628 196.285 89.2517 196.05 89.3178C195.814 89.384 195.592 89.441 195.381 89.4888L192.19 79.6671C190.76 80.1318 189.789 80.8888 189.278 81.938C188.775 82.9842 188.769 84.2596 189.258 85.7642C189.391 86.1729 189.537 86.577 189.698 86.9766C189.868 87.3732 190.043 87.7528 190.222 88.1155C190.401 88.4782 190.58 88.8208 190.756 89.1433C190.945 89.4721 191.13 89.7715 191.31 90.0416L189.318 90.6889C188.918 90.0898 188.526 89.3904 188.143 88.5908C187.754 87.8034 187.414 86.9639 187.125 86.0723C186.735 84.8742 186.563 83.7904 186.607 82.8211C186.652 81.8517 186.89 80.9888 187.322 80.2323C187.766 79.4822 188.39 78.8276 189.194 78.2685C190.011 77.7158 190.985 77.2553 192.118 76.8871C193.103 76.5672 194.077 76.4048 195.041 76.3997C196.016 76.401 196.922 76.5638 197.756 76.8882C198.603 77.2189 199.35 77.7156 199.996 78.3783C200.643 79.041 201.129 79.8739 201.455 80.877C201.772 81.8522 201.899 82.7657 201.837 83.6176C201.775 84.4695 201.544 85.2429 201.143 85.9378C200.755 86.639 200.199 87.2509 199.475 87.7735C198.764 88.3023 197.912 88.7282 196.918 89.0511ZM196.447 86.4164C197.078 86.242 197.625 85.9976 198.088 85.683C198.56 85.3654 198.93 84.9884 199.199 84.5519C199.471 84.1247 199.633 83.6457 199.687 83.1149C199.75 82.5811 199.681 82.0077 199.482 81.3947C199.31 80.8653 199.051 80.4156 198.705 80.0454C198.359 79.6753 197.949 79.3927 197.475 79.1976C197 79.0026 196.472 78.892 195.888 78.866C195.305 78.8399 194.694 78.9048 194.057 79.0605L196.447 86.4164Z" fill="white"/>
<path d="M195.197 110.766C194.68 110.798 194.212 110.74 193.791 110.59C193.371 110.44 192.991 110.225 192.65 109.943C192.319 109.66 192.029 109.326 191.78 108.941C191.53 108.555 191.318 108.138 191.143 107.689C190.969 107.25 190.832 106.794 190.734 106.32C190.636 105.847 190.572 105.382 190.543 104.923C190.481 103.929 190.467 103.01 190.502 102.167C190.538 101.333 190.628 100.51 190.772 99.6986L193.112 99.5514C192.922 100.424 192.79 101.289 192.717 102.145C192.644 103.001 192.633 103.848 192.686 104.686C192.763 105.904 192.985 106.795 193.353 107.359C193.722 107.923 194.213 108.186 194.827 108.147C195.09 108.131 195.321 108.067 195.519 107.957C195.728 107.856 195.917 107.677 196.087 107.422C196.267 107.166 196.443 106.773 196.615 106.244C196.788 105.724 196.978 105.013 197.185 104.109C197.338 103.434 197.519 102.806 197.727 102.226C197.946 101.654 198.213 101.153 198.528 100.722C198.843 100.292 199.223 99.9448 199.666 99.6821C200.109 99.4194 200.643 99.2684 201.267 99.2291C201.676 99.2034 202.13 99.2678 202.629 99.4223C203.129 99.5865 203.602 99.8845 204.05 100.316C204.498 100.748 204.883 101.345 205.205 102.108C205.537 102.87 205.74 103.835 205.813 105.005C205.849 105.58 205.855 106.22 205.831 106.926C205.817 107.632 205.756 108.37 205.648 109.14L203.382 109.282C203.526 108.471 203.62 107.702 203.662 106.975C203.715 106.257 203.725 105.635 203.691 105.109C203.652 104.475 203.569 103.942 203.444 103.51C203.32 103.087 203.161 102.745 202.968 102.483C202.786 102.23 202.574 102.053 202.333 101.951C202.102 101.848 201.854 101.805 201.591 101.821C201.328 101.838 201.092 101.902 200.884 102.013C200.676 102.133 200.479 102.336 200.291 102.622C200.114 102.917 199.939 103.32 199.765 103.83C199.602 104.339 199.428 105 199.245 105.814C199.046 106.698 198.824 107.446 198.578 108.058C198.343 108.67 198.066 109.171 197.748 109.563C197.431 109.955 197.062 110.242 196.643 110.425C196.225 110.618 195.743 110.731 195.197 110.766Z" fill="white"/>
<path d="M201.962 126.977L202.777 122.703L204.849 123.099L203.551 129.905L191.191 127.547L190.37 131.849L188.284 131.451L190.493 119.868L192.58 120.266L191.674 125.014L201.962 126.977ZM209.924 129.405C209.871 129.684 209.769 129.932 209.618 130.152C209.476 130.374 209.298 130.553 209.082 130.691C208.865 130.839 208.628 130.938 208.37 130.988C208.119 131.049 207.855 131.054 207.577 131.001C207.308 130.949 207.064 130.848 206.845 130.697C206.623 130.555 206.438 130.376 206.291 130.159C206.142 129.951 206.037 129.718 205.977 129.458C205.927 129.2 205.929 128.931 205.982 128.653C206.035 128.375 206.132 128.125 206.274 127.904C206.425 127.684 206.609 127.5 206.826 127.353C207.041 127.215 207.279 127.116 207.539 127.056C207.797 127.006 208.06 127.007 208.329 127.058C208.607 127.111 208.852 127.208 209.064 127.347C209.284 127.499 209.468 127.678 209.618 127.885C209.765 128.102 209.864 128.34 209.914 128.598C209.974 128.858 209.977 129.127 209.924 129.405Z" fill="white"/>
<path d="M192.458 154.333C192.032 154.435 191.58 154.454 191.103 154.391C190.63 154.342 190.155 154.204 189.678 153.98C188.988 153.655 188.417 153.23 187.963 152.704C187.514 152.19 187.194 151.608 187.004 150.957C186.814 150.306 186.756 149.604 186.829 148.851C186.908 148.111 187.128 147.357 187.49 146.588C187.752 146.031 188.054 145.537 188.398 145.105C188.75 144.677 189.081 144.364 189.391 144.164C189.223 143.88 189.055 143.628 188.888 143.409C188.721 143.19 188.501 143.017 188.227 142.888C187.891 142.73 187.538 142.758 187.168 142.972C186.793 143.195 186.472 143.567 186.205 144.089L184.426 147.526C184.096 148.18 183.725 148.75 183.313 149.236C182.897 149.731 182.454 150.111 181.984 150.376C181.51 150.649 181.013 150.798 180.494 150.824C179.97 150.858 179.435 150.746 178.887 150.489C178.295 150.21 177.794 149.818 177.385 149.312C176.975 148.806 176.698 148.191 176.554 147.464C176.397 146.743 176.393 145.915 176.541 144.981C176.689 144.047 177.029 143.015 177.561 141.884C178.069 140.806 178.589 139.928 179.124 139.251C179.645 138.579 180.175 138.073 180.713 137.733C181.242 137.388 181.77 137.205 182.298 137.184C182.818 137.158 183.329 137.264 183.833 137.501C184.478 137.805 184.973 138.221 185.317 138.75C185.662 139.279 185.912 139.963 186.067 140.803C186.282 140.623 186.508 140.487 186.746 140.394C186.984 140.3 187.221 140.245 187.456 140.226C187.7 140.211 187.941 140.227 188.178 140.274C188.415 140.321 188.635 140.392 188.838 140.488C189.413 140.758 189.876 141.138 190.228 141.628C190.577 142.126 190.876 142.661 191.125 143.231C191.407 143.159 191.677 143.102 191.934 143.061C192.186 143.029 192.446 143.016 192.712 143.023C192.984 143.043 193.26 143.087 193.541 143.154C193.827 143.235 194.138 143.354 194.474 143.512C195.163 143.836 195.732 144.255 196.181 144.769C196.635 145.295 196.959 145.88 197.153 146.521C197.344 147.172 197.4 147.868 197.321 148.608C197.247 149.361 197.028 150.126 196.662 150.904C196.508 151.231 196.338 151.534 196.153 151.814C195.967 152.093 195.785 152.331 195.606 152.528L193.336 157.353L191.454 156.467L192.458 154.333ZM182.878 140.047C182.25 139.751 181.642 139.864 181.051 140.385C180.452 140.902 179.878 141.743 179.329 142.91C178.984 143.643 178.761 144.288 178.661 144.846C178.556 145.412 178.544 145.897 178.623 146.301C178.69 146.71 178.833 147.048 179.054 147.313C179.265 147.575 179.517 147.774 179.808 147.911C180.347 148.165 180.849 148.131 181.313 147.81C181.777 147.489 182.246 146.883 182.718 145.994L184.472 142.577C184.414 142.194 184.339 141.862 184.245 141.58C184.146 141.307 184.029 141.074 183.894 140.881C183.749 140.683 183.595 140.519 183.43 140.387C183.256 140.252 183.072 140.138 182.878 140.047ZM193.429 145.87C193.005 145.67 192.583 145.558 192.163 145.533C191.743 145.508 191.349 145.565 190.981 145.705C190.613 145.845 190.277 146.054 189.974 146.332C189.675 146.623 189.426 146.981 189.226 147.405C189.01 147.864 188.894 148.306 188.877 148.73C188.866 149.168 188.937 149.568 189.09 149.931C189.238 150.303 189.456 150.632 189.742 150.918C190.024 151.213 190.351 151.447 190.722 151.622C191.146 151.822 191.568 151.934 191.988 151.959C192.408 151.984 192.802 151.926 193.17 151.787C193.538 151.647 193.872 151.431 194.171 151.14C194.474 150.862 194.726 150.511 194.925 150.087C195.142 149.627 195.255 149.179 195.267 148.742C195.274 148.314 195.203 147.913 195.055 147.541C194.911 147.182 194.698 146.855 194.415 146.56C194.129 146.275 193.8 146.044 193.429 145.87Z" fill="white"/>
<path d="M187.152 166.569L185.705 168.319L183.811 166.885C183.929 167.54 183.988 168.127 183.988 168.648C183.996 169.174 183.958 169.649 183.873 170.073C183.782 170.505 183.639 170.9 183.444 171.258C183.257 171.623 183.026 171.971 182.752 172.302C181.787 173.468 180.713 174.062 179.529 174.084C178.346 174.119 177.063 173.564 175.678 172.419L168.285 166.303L169.91 164.339L177.145 170.324C178.033 171.059 178.824 171.435 179.519 171.452C180.222 171.476 180.844 171.161 181.386 170.506C181.585 170.265 181.744 169.997 181.861 169.702C181.98 169.42 182.052 169.08 182.077 168.682C182.11 168.291 182.097 167.824 182.038 167.282C181.974 166.747 181.865 166.112 181.713 165.377L174.196 159.159L175.82 157.195L187.152 166.569Z" fill="white"/>
<path d="M156.702 185.917C156.489 185.624 156.315 185.376 156.18 185.173C156.044 184.97 155.921 184.776 155.81 184.59L164.165 178.52C163.281 177.304 162.261 176.614 161.106 176.452C159.955 176.298 158.74 176.686 157.461 177.616C157.113 177.868 156.774 178.133 156.443 178.409C156.119 178.693 155.812 178.976 155.522 179.259C155.233 179.542 154.962 179.817 154.71 180.085C154.456 180.366 154.228 180.634 154.027 180.889L152.795 179.194C153.242 178.629 153.786 178.04 154.428 177.429C155.056 176.815 155.75 176.233 156.508 175.682C157.527 174.941 158.505 174.443 159.441 174.185C160.376 173.928 161.27 173.888 162.123 174.065C162.974 174.256 163.79 174.647 164.57 175.239C165.348 175.845 166.087 176.629 166.787 177.593C167.396 178.431 167.851 179.307 168.154 180.222C168.454 181.15 168.579 182.061 168.528 182.955C168.475 183.863 168.234 184.726 167.803 185.546C167.373 186.366 166.731 187.086 165.878 187.705C165.048 188.308 164.219 188.712 163.389 188.916C162.56 189.12 161.753 189.139 160.968 188.973C160.181 188.82 159.428 188.481 158.707 187.954C157.984 187.441 157.316 186.762 156.702 185.917ZM159.062 184.654C159.423 185.201 159.824 185.646 160.266 185.988C160.714 186.339 161.187 186.575 161.685 186.695C162.176 186.822 162.682 186.829 163.203 186.716C163.73 186.61 164.254 186.368 164.776 185.989C165.226 185.662 165.574 185.277 165.819 184.833C166.064 184.39 166.206 183.912 166.245 183.401C166.284 182.89 166.226 182.353 166.07 181.79C165.914 181.227 165.664 180.666 165.319 180.108L159.062 184.654Z" fill="white"/>
<path d="M149.724 196.867L147.558 197.724L146.493 195.231C146.069 196.523 145.553 197.541 144.945 198.286C144.328 199.035 143.619 199.567 142.82 199.883C141.404 200.444 140.151 200.41 139.061 199.78C137.963 199.155 137.083 197.927 136.422 196.099L138.819 195.15C139.267 196.359 139.787 197.156 140.38 197.541C140.968 197.938 141.626 197.993 142.352 197.706C142.67 197.58 142.969 197.393 143.249 197.146C143.523 196.911 143.783 196.598 144.027 196.207C144.266 195.829 144.499 195.369 144.726 194.828C144.953 194.286 145.174 193.653 145.391 192.926L141.913 184.141L144.31 183.192L149.724 196.867Z" fill="white"/>
<path d="M116.23 197.325L124.921 196.227L125.222 198.61L116.531 199.708L116.23 197.325Z" fill="white"/>
</svg>
